<svg width="18" height="18" viewBox="0 0 18 18" fill="none" xmlns="http://www.w3.org/2000/svg">
<g clip-path="url(#clip0_38_30)">
<path d="M17.25 14.25H15.2527C14.928 13.1693 13.935 12.375 12.75 12.375C11.565 12.375 10.5727 13.1693 10.2473 14.25H0.749988C0.335988 14.25 0 14.586 0 15C0 15.414 0.335988 15.75 0.749988 15.75H10.2472C10.572 16.8307 11.565 17.625 12.75 17.625C13.935 17.625 14.9272 16.8307 15.2527 15.75H17.25C17.6647 15.75 18 15.414 18 15C18 14.586 17.6647 14.25 17.25 14.25ZM12.75 16.125C12.1297 16.125 11.625 15.6203 11.625 15C11.625 14.3797 12.1297 13.875 12.75 13.875C13.3703 13.875 13.875 14.3797 13.875 15C13.875 15.6203 13.3702 16.125 12.75 16.125Z" fill="#0073A4"/>
<path d="M17.25 2.24999H15.2527C14.9272 1.16925 13.935 0.375 12.75 0.375C11.565 0.375 10.5727 1.16925 10.2472 2.24999H0.749988C0.335988 2.24999 0 2.58598 0 2.99998C0 3.41398 0.335988 3.74997 0.749988 3.74997H10.2472C10.5727 4.83074 11.565 5.62499 12.75 5.62499C13.935 5.62499 14.9273 4.83074 15.2527 3.75H17.25C17.6647 3.75 18 3.41401 18 3.00001C18 2.58601 17.6647 2.24999 17.25 2.24999ZM12.75 4.12498C12.1297 4.12498 11.625 3.62024 11.625 2.99998C11.625 2.37972 12.1297 1.87498 12.75 1.87498C13.3703 1.87498 13.875 2.37972 13.875 2.99998C13.875 3.62024 13.3702 4.12498 12.75 4.12498Z" fill="#0073A4"/>
<path d="M17.25 8.24999H7.75276C7.42725 7.16925 6.435 6.375 5.25002 6.375C4.06505 6.375 3.07276 7.16925 2.74729 8.24999H0.749988C0.335988 8.24999 0 8.58598 0 8.99998C0 9.41398 0.335988 9.74997 0.749988 9.74997H2.74725C3.07276 10.8307 4.06501 11.625 5.24999 11.625C6.43496 11.625 7.42725 10.8307 7.75273 9.74997H17.25C17.6647 9.74997 18 9.41398 18 8.99998C18 8.58598 17.6647 8.24999 17.25 8.24999ZM5.24999 10.125C4.62973 10.125 4.12499 9.62024 4.12499 8.99998C4.12499 8.37972 4.62973 7.87498 5.24999 7.87498C5.87025 7.87498 6.37499 8.37972 6.37499 8.99998C6.37499 9.62024 5.87025 10.125 5.24999 10.125Z" fill="#0073A4"/>
</g>
<defs>
<clipPath id="clip0_38_30">
<rect width="18" height="18" fill="white"/>
</clipPath>
</defs>
</svg>
