<svg width="1280" height="768" viewBox="0 0 1280 768" fill="none" xmlns="http://www.w3.org/2000/svg">
<rect width="1280" height="768" fill="white"/>
<path d="M174.245 422.478H137.4L137.632 395.241H174.245C183.388 395.241 191.098 393.184 197.375 389.071C203.651 384.881 208.378 378.789 211.555 370.797C214.809 362.804 216.437 353.143 216.437 341.813V333.549C216.437 324.857 215.507 317.214 213.647 310.618C211.865 304.022 209.192 298.474 205.627 293.973C202.063 289.472 197.685 286.096 192.493 283.846C187.302 281.518 181.335 280.354 174.594 280.354H136.703V253H174.594C185.907 253 196.251 254.94 205.627 258.82C215.081 262.622 223.255 268.093 230.152 275.232C237.048 282.372 242.356 290.908 246.075 300.84C249.872 310.696 251.771 321.676 251.771 333.781V341.813C251.771 353.841 249.872 364.821 246.075 374.754C242.356 384.687 237.048 393.223 230.152 400.362C223.333 407.424 215.158 412.895 205.627 416.775C196.174 420.577 185.713 422.478 174.245 422.478ZM157.159 253V422.478H122.29V253H157.159Z" fill="#0073A4"/>
<path d="M332.9 424.806C323.136 424.806 314.38 423.254 306.631 420.15C298.883 416.969 292.296 412.584 286.872 406.997C281.526 401.41 277.419 394.93 274.552 387.558C271.685 380.109 270.251 372.193 270.251 363.813V359.157C270.251 349.612 271.607 340.882 274.319 332.967C277.031 325.051 280.906 318.184 285.942 312.364C291.057 306.544 297.256 302.082 304.539 298.978C311.823 295.796 320.037 294.206 329.18 294.206C338.091 294.206 345.995 295.68 352.891 298.629C359.788 301.578 365.56 305.768 370.21 311.2C374.936 316.632 378.501 323.15 380.903 330.755C383.305 338.282 384.506 346.663 384.506 355.897V369.865H284.548V347.517H351.613V344.956C351.613 340.3 350.76 336.148 349.056 332.501C347.428 328.776 344.949 325.827 341.617 323.655C338.285 321.482 334.023 320.395 328.831 320.395C324.415 320.395 320.618 321.365 317.441 323.305C314.264 325.245 311.668 327.961 309.653 331.453C307.716 334.945 306.244 339.058 305.237 343.792C304.307 348.448 303.842 353.569 303.842 359.157V363.813C303.842 368.857 304.539 373.513 305.934 377.781C307.406 382.049 309.46 385.735 312.094 388.839C314.806 391.943 318.061 394.348 321.858 396.055C325.732 397.763 330.11 398.616 334.992 398.616C341.036 398.616 346.654 397.452 351.845 395.124C357.114 392.719 361.647 389.11 365.444 384.299L381.716 401.992C379.082 405.794 375.479 409.441 370.907 412.933C366.413 416.425 360.989 419.297 354.635 421.547C348.281 423.72 341.036 424.806 332.9 424.806Z" fill="#0073A4"/>
<path d="M437.042 322.607V422.478H403.451V296.534H434.95L437.042 322.607ZM432.393 355.083H423.094C423.094 346.314 424.14 338.243 426.233 330.871C428.402 323.422 431.54 316.981 435.647 311.549C439.832 306.04 444.984 301.772 451.106 298.745C457.227 295.719 464.317 294.206 472.376 294.206C477.955 294.206 483.069 295.059 487.719 296.766C492.368 298.396 496.358 300.996 499.69 304.565C503.1 308.057 505.734 312.636 507.594 318.3C509.454 323.887 510.383 330.6 510.383 338.437V422.478H476.909V342.162C476.909 336.42 476.134 331.997 474.585 328.893C473.035 325.789 470.826 323.616 467.959 322.374C465.17 321.133 461.799 320.512 457.847 320.512C453.508 320.512 449.711 321.404 446.457 323.189C443.28 324.974 440.645 327.457 438.553 330.639C436.461 333.743 434.911 337.39 433.904 341.58C432.897 345.771 432.393 350.271 432.393 355.083ZM507.245 351.241L495.274 352.755C495.274 344.529 496.281 336.885 498.296 329.824C500.388 322.762 503.448 316.554 507.478 311.2C511.585 305.846 516.66 301.694 522.704 298.745C528.748 295.719 535.722 294.206 543.625 294.206C549.669 294.206 555.171 295.098 560.13 296.883C565.089 298.59 569.312 301.345 572.799 305.147C576.364 308.872 579.076 313.761 580.935 319.813C582.873 325.866 583.841 333.277 583.841 342.046V422.478H550.251V342.046C550.251 336.226 549.476 331.803 547.926 328.776C546.454 325.672 544.284 323.538 541.417 322.374C538.628 321.133 535.296 320.512 531.421 320.512C527.392 320.512 523.866 321.327 520.844 322.956C517.822 324.508 515.304 326.681 513.289 329.475C511.275 332.268 509.764 335.527 508.756 339.252C507.749 342.899 507.245 346.896 507.245 351.241Z" fill="#0073A4"/>
<path d="M604.414 360.786V358.342C604.414 349.107 605.731 340.61 608.366 332.85C611 325.013 614.836 318.223 619.873 312.48C624.909 306.738 631.108 302.276 638.469 299.094C645.831 295.835 654.277 294.206 663.808 294.206C673.339 294.206 681.823 295.835 689.262 299.094C696.701 302.276 702.939 306.738 707.975 312.48C713.089 318.223 716.964 325.013 719.598 332.85C722.233 340.61 723.55 349.107 723.55 358.342V360.786C723.55 369.943 722.233 378.44 719.598 386.278C716.964 394.038 713.089 400.828 707.975 406.648C702.939 412.39 696.74 416.852 689.378 420.034C682.017 423.215 673.571 424.806 664.04 424.806C654.509 424.806 646.024 423.215 638.586 420.034C631.224 416.852 624.987 412.39 619.873 406.648C614.836 400.828 611 394.038 608.366 386.278C605.731 378.44 604.414 369.943 604.414 360.786ZM637.888 358.342V360.786C637.888 366.063 638.353 370.991 639.283 375.569C640.213 380.147 641.685 384.183 643.7 387.675C645.792 391.089 648.504 393.766 651.836 395.706C655.168 397.646 659.236 398.616 664.04 398.616C668.689 398.616 672.68 397.646 676.012 395.706C679.344 393.766 682.017 391.089 684.032 387.675C686.046 384.183 687.519 380.147 688.449 375.569C689.456 370.991 689.96 366.063 689.96 360.786V358.342C689.96 353.22 689.456 348.409 688.449 343.908C687.519 339.33 686.008 335.295 683.916 331.803C681.901 328.233 679.228 325.439 675.896 323.422C672.564 321.404 668.534 320.395 663.808 320.395C659.081 320.395 655.052 321.404 651.72 323.422C648.465 325.439 645.792 328.233 643.7 331.803C641.685 335.295 640.213 339.33 639.283 343.908C638.353 348.409 637.888 353.22 637.888 358.342Z" fill="#0073A4"/>
<path d="M812.118 362.067H768.996V334.829H812.118C818.782 334.829 824.206 333.743 828.39 331.57C832.574 329.319 835.635 326.215 837.572 322.258C839.509 318.3 840.478 313.838 840.478 308.872C840.478 303.828 839.509 299.133 837.572 294.788C835.635 290.442 832.574 286.95 828.39 284.312C824.206 281.673 818.782 280.354 812.118 280.354H781.084V422.478H746.215V253H812.118C825.368 253 836.72 255.406 846.173 260.217C855.704 264.95 862.988 271.508 868.025 279.888C873.061 288.269 875.58 297.853 875.58 308.639C875.58 319.581 873.061 329.048 868.025 337.041C862.988 345.033 855.704 351.203 846.173 355.548C836.72 359.894 825.368 362.067 812.118 362.067Z" fill="#0073A4"/>
<path d="M890.573 360.786V358.342C890.573 349.107 891.891 340.61 894.525 332.85C897.16 325.013 900.995 318.223 906.032 312.48C911.069 306.738 917.268 302.276 924.629 299.094C931.99 295.835 940.436 294.206 949.967 294.206C959.498 294.206 967.983 295.835 975.422 299.094C982.86 302.276 989.098 306.738 994.135 312.48C999.249 318.223 1003.12 325.013 1005.76 332.85C1008.39 340.61 1009.71 349.107 1009.71 358.342V360.786C1009.71 369.943 1008.39 378.44 1005.76 386.278C1003.12 394.038 999.249 400.828 994.135 406.648C989.098 412.39 982.899 416.852 975.538 420.034C968.177 423.215 959.73 424.806 950.2 424.806C940.669 424.806 932.184 423.215 924.745 420.034C917.384 416.852 911.146 412.39 906.032 406.648C900.995 400.828 897.16 394.038 894.525 386.278C891.891 378.44 890.573 369.943 890.573 360.786ZM924.048 358.342V360.786C924.048 366.063 924.513 370.991 925.443 375.569C926.372 380.147 927.845 384.183 929.859 387.675C931.951 391.089 934.663 393.766 937.995 395.706C941.327 397.646 945.395 398.616 950.2 398.616C954.849 398.616 958.839 397.646 962.171 395.706C965.503 393.766 968.177 391.089 970.191 387.675C972.206 384.183 973.678 380.147 974.608 375.569C975.615 370.991 976.119 366.063 976.119 360.786V358.342C976.119 353.22 975.615 348.409 974.608 343.908C973.678 339.33 972.167 335.295 970.075 331.803C968.06 328.233 965.387 325.439 962.055 323.422C958.723 321.404 954.694 320.395 949.967 320.395C945.24 320.395 941.211 321.404 937.879 323.422C934.625 325.439 931.951 328.233 929.859 331.803C927.845 335.295 926.372 339.33 925.443 343.908C924.513 348.409 924.048 353.22 924.048 358.342Z" fill="#0073A4"/>
<path d="M1063.76 324.004V422.478H1030.28V296.534H1061.78L1063.76 324.004ZM1101.65 295.719L1101.07 326.797C1099.44 326.565 1097.46 326.371 1095.14 326.215C1092.89 325.983 1090.84 325.866 1088.98 325.866C1084.25 325.866 1080.15 326.487 1076.66 327.729C1073.25 328.893 1070.38 330.639 1068.06 332.967C1065.81 335.295 1064.11 338.127 1062.94 341.464C1061.86 344.801 1061.24 348.603 1061.08 352.871L1054.34 350.776C1054.34 342.628 1055.16 335.139 1056.78 328.311C1058.41 321.404 1060.77 315.39 1063.87 310.269C1067.05 305.147 1070.92 301.19 1075.5 298.396C1080.07 295.602 1085.3 294.206 1091.19 294.206C1093.05 294.206 1094.95 294.361 1096.88 294.671C1098.82 294.904 1100.41 295.253 1101.65 295.719Z" fill="#0073A4"/>
<path d="M1184.87 296.534V320.279H1111.64V296.534H1184.87ZM1129.78 265.455H1163.25V384.532C1163.25 388.179 1163.71 390.973 1164.64 392.913C1165.65 394.853 1167.12 396.211 1169.06 396.987C1171 397.685 1173.44 398.034 1176.38 398.034C1178.48 398.034 1180.34 397.957 1181.96 397.801C1183.67 397.569 1185.1 397.336 1186.26 397.103L1186.38 421.78C1183.51 422.711 1180.41 423.448 1177.08 423.991C1173.75 424.535 1170.07 424.806 1166.04 424.806C1158.68 424.806 1152.25 423.603 1146.75 421.198C1141.32 418.715 1137.14 414.757 1134.19 409.325C1131.25 403.893 1129.78 396.754 1129.78 387.907V265.455Z" fill="#0073A4"/>
<path d="M118 487.493H1200V520H118V487.493Z" fill="#0073A4"/>
</svg>
